#!OML:ASF F:\VICON\USERDATA\INSTALL\rory3\rory3.ASF
:FULLY-SPECIFIED
:DEGREES
1
root 1.3189100000000018 18.0284 -29.617100000000022 -4.138779999999995 -2.159100000000002 0.296809000000001
lfemur -8.904439999999997 -0.6554219999999995 -23.566500000000005
ltibia 22.346900000000012
lfoot -11.912400000000007 -5.416099999999997
ltoes -5.189859999999997
rfemur -18.2176 -0.6707299999999963 21.420399999999997
rtibia 71.20660000000004
rfoot -3.3122700000000096 -3.3362000000000007
rtoes 1.0802699999999952
lowerback 1.0 0.6819329999999997 -0.9316760000000015
upperback 1.250460000000001 0.8239149999999997 0.7031869999999977
thorax -5.25749 0.43186699999999967 1.1299
lowerneck -16.1754 -2.80102 -1.5538099999999995
upperneck 24.921100000000003 -3.28504 -0.9240669999999973
head 10.6992 -1.76434 -0.5248400000000004
lclavicle 1.0026200000000014e-14 1.7890599999999955e-14
lhumerus -32.935300000000005 3.8434699999999995 81.335
lradius 19.8658
lwrist 0.6037909999999997
lhand -28.1092 20.432399999999998
lfingers 7.12502
lthumb -1.4913399999999997 50.407
rclavicle 1.0026200000000014e-14 1.7890599999999955e-14
rhumerus -25.6516 -20.4504 -78.3443
rradius 26.959600000000002
rwrist 4.537949999999999
rhand -18.0902 1.0
rfingers 7.12502
rthumb 8.18329 -6.042279999999998
2
root 1.322540000000001 17.9823 -28.993400000000072 -4.060280000000002 -0.5752210000000019 0.6015030000000019
lfemur -7.464799999999997 -0.524445 -24.0141
ltibia 23.54049999999999
lfoot -14.981499999999997 -6.078489999999991
ltoes -5.654920000000002
rfemur -22.384000000000004 -1.9414299999999933 21.2356
rtibia 69.45080000000003
rfoot -6.88683 -3.3668599999999964
rtoes 1.1972500000000008
lowerback 1.0 -0.5318680000000011 -2.614079999999995
upperback 0.026927399999999685 -0.9509069999999982 1.7773400000000004
thorax -6.6465099999999975 -0.34952899999999926 3.5237600000000002
lowerneck -11.838899999999999 -2.165140000000001 -3.0929000000000015
upperneck 23.9212 -2.1240500000000004 -1.0055999999999976
head 9.52631 -1.3837000000000006 -0.07245559999999991
lclavicle 8.522889999999998e-15 -1.510760000000001e-14
lhumerus -34.026599999999995 4.128810000000001 81.9096
lradius 21.7553
lwrist 1.6418299999999972
lhand -28.2702 22.272
lfingers 7.12502
lthumb -1.6468600000000015 52.2454
rclavicle 8.522889999999998e-15 -1.510760000000001e-14
rhumerus -29.2949 -16.698699999999988 -77.1978
rradius 27.5977
rwrist 2.968090000000002
rhand -18.0858 1.0
rfingers 7.12502
rthumb 8.18753 -6.466809999999999
3
root 1.3224300000000007 17.923 -28.372799999999998 -4.119049999999998 0.561211000000003 1.1283300000000072
lfemur -5.521029999999994 -0.1627030000000036 -24.573300000000003
ltibia 24.385400000000025
lfoot -18.184900000000013 -6.791629999999996
ltoes -6.548719999999996
rfemur -25.603500000000004 -2.8387399999999934 20.822500000000005
rtibia 65.38929999999996
rfoot -9.2701 -5.38375
rtoes 0.6101009999999989
lowerback 1.0 -0.43795999999999896 -2.740270000000008
upperback 0.7477320000000006 -0.8819949999999961 1.23523
thorax -6.04299 -0.34186499999999914 3.002630000000002
lowerneck -14.608199999999998 -2.78505 -2.0144
upperneck 24.252900000000004 -3.2033000000000005 -0.8332310000000008
head 10.1637 -1.76338 -0.36982799999999993
lclavicle -1.8387600000000003e-15 -1.1927099999999984e-15
lhumerus -29.9757 -1.3217499999999962 82.7503
lradius 23.8272
lwrist 4.01753
lhand -27.9343 28.9218
lfingers 7.12502
lthumb -1.3224400000000005 58.897500000000015
rclavicle -1.8387600000000003e-15 -1.1927099999999984e-15
rhumerus -29.6136 -19.8306 -77.0264
rradius 27.442100000000003
rwrist 3.104779999999999
rhand -18.214 1.0
rfingers 7.12502
rthumb 8.06376 -5.936230000000002
4
root 1.3186699999999985 17.8786 -27.7301 -3.8526100000000016 1.821510000000005 2.0108599999999996
lfemur -3.3090499999999885 -0.1166200000000055 -25.4838
ltibia 23.98529999999998
lfoot -20.30829999999999 -7.5019099999999925
ltoes -6.411370000000005
rfemur -28.14359999999997 -3.406260000000012 19.93310000000001
rtibia 59.24959999999999
rfoot -11.303499999999998 -7.747239999999998
rtoes 1.038790000000001
lowerback 1.0 -0.752125000000001 -3.487609999999994
upperback 1.1356500000000012 -1.403050000000003 0.9447290000000002
thorax -5.39041 -0.602171000000002 3.1906499999999998
lowerneck -15.8097 -2.84201 -1.62736
upperneck 23.999 -3.411 -0.6245530000000001
head 10.2987 -1.79484 -0.405615
lclavicle -2.633899999999999e-15 1.590280000000009e-15
lhumerus -27.097699999999996 -4.091910000000014 82.4857
lradius 26.256800000000002
lwrist 5.93276
lhand -27.7143 24.495300000000004
lfingers 7.12502
lthumb -1.1099800000000002 54.4722
rclavicle -2.633899999999999e-15 1.590280000000009e-15
rhumerus -30.3207 -21.365899999999996 -76.7143
rradius 27.161999999999992
rwrist 3.0625099999999956
rhand -17.7755 1.0
rfingers 7.12502
rthumb 8.48698 -5.875899999999996
5
root 1.310160000000001 17.8455 -27.085200000000086 -3.230729999999999 2.313759999999993 2.4782400000000044
lfemur -0.9431139999999836 -0.025683400000003687 -25.97630000000001
ltibia 22.6822
lfoot -20.918399999999977 -7.633310000000002
ltoes -4.024790000000001
rfemur -30.00719999999999 -2.6485100000000097 19.324199999999983
rtibia 50.8215
rfoot -10.800400000000003 -10.042999999999996
rtoes 2.499349999999999
lowerback 1.0 -0.7985790000000008 -3.8413599999999875
upperback 1.3821999999999979 -1.5054499999999966 0.8532320000000002
thorax -5.02144 -0.6586159999999985 3.3014
lowerneck -17.947099999999995 -3.0964599999999995 -1.5263199999999995
upperneck 24.580800000000004 -3.7821 -0.5413269999999993
head 10.9261 -1.9355800000000003 -0.49019099999999943
lclavicle 1.5033099999999972e-14 -4.3732600000000035e-15
lhumerus -23.88750000000001 -5.553830000000009 81.7071
lradius 28.022099999999995
lwrist 6.105890000000002
lhand -29.159299999999998 22.54
lfingers 7.12502
lthumb -2.5055699999999987 52.505
rclavicle 1.5033099999999972e-14 -4.3732600000000035e-15
rhumerus -30.9387 -23.8362 -75.8587
rradius 26.420799999999996
rwrist 3.855400000000004
rhand -17.5069 1.0
rfingers 7.12502
rthumb 8.746209999999998 -5.793129999999998
6
root 1.292489999999999 17.8794 -26.42860000000001 -2.57154 2.2709599999999996 2.71301
lfemur 2.2751799999999918 0.09072650000000326 -26.35409999999999
ltibia 19.559
lfoot -19.95130000000003 -7.273610000000005
ltoes -1.089779999999997
rfemur -30.58670000000002 0.18702599999999414 18.24129999999999
rtibia 40.2786
rfoot -8.304949999999998 -11.703500000000009
rtoes 6.459490000000001
lowerback 1.0 -1.1010100000000007 -4.34656000000001
upperback 0.5927439999999996 -1.946029999999999 1.1857899999999995
thorax -5.50021 -0.8348149999999999 4.005579999999999
lowerneck -15.4383 -2.85577 -2.2649700000000004
upperneck 23.732 -3.3252699999999997 -0.40546799999999905
head 10.1488 -1.78873 -0.2015389999999999
lclavicle 2.1468700000000047e-14 -1.0336800000000003e-14
lhumerus -23.785399999999996 -5.452979999999985 81.1648
lradius 30.273500000000013
lwrist 6.725240000000005
lhand -29.829599999999996 24.6754
lfingers 7.12502
lthumb -3.1529300000000022 54.6318
rclavicle 2.1468700000000047e-14 -1.0336800000000003e-14
rhumerus -33.28159999999999 -23.9704 -74.2543
rradius 25.338
rwrist 4.275380000000004
rhand -17.6658 1.0
rfingers 7.12502
rthumb 8.59289 -6.19049
7
root 1.2780399999999983 17.8469 -25.75580000000003 -1.8155199999999985 1.9953100000000055 2.814519999999996
lfemur 5.143930000000022 -0.626386000000005 -26.954499999999992
ltibia 17.128199999999975
lfoot -18.220500000000026 -5.7264699999999955
ltoes 3.855070000000014
rfemur -30.52199999999999 4.64115 16.404100000000017
rtibia 29.136299999999988
rfoot -3.9841800000000056 -12.682200000000003
rtoes 8.856660000000005
lowerback 1.0 -1.0074500000000008 -4.098900000000008
upperback 0.616909 -1.7727000000000048 1.1495500000000005
thorax -5.2357 -0.7640650000000024 3.7843800000000023
lowerneck -17.232900000000004 -2.8361 -1.9419099999999998
upperneck 23.9321 -3.3181100000000003 -0.48641400000000085
head 10.556899999999999 -1.75983 -0.31441299999999983
lclavicle 5.963539999999964e-16 -1.272219999999998e-14
lhumerus -21.717099999999988 -5.918849999999995 80.4397
lradius 31.98740000000001
lwrist 7.660470000000011
lhand -32.103699999999996 23.1625
lfingers 7.12502
lthumb -5.348820000000002 53.075
rclavicle 5.963539999999964e-16 -1.272219999999998e-14
rhumerus -34.13770000000001 -26.1682 -73.0168
rradius 23.8674
rwrist 6.10029
rhand -18.6759 1.0
rfingers 7.12502
rthumb 7.617950000000001 -7.156699999999999
8
root 1.2569200000000005 17.7944 -25.070899999999966 -1.464389999999999 1.9727500000000007 2.5412099999999946
lfemur 8.255669999999986 -1.3870400000000023 -27.068099999999987
ltibia 15.168499999999998
lfoot -17.707000000000022 -4.109750000000003
ltoes 4.457549999999985
rfemur -30.242500000000014 9.556150000000004 14.344300000000013
rtibia 20.836999999999975
rfoot -7.312700000000001 -15.444000000000013
rtoes 10.912200000000006
lowerback 1.0 -1.4559400000000018 -3.882400000000006
upperback -0.028133599999999676 -2.3223699999999967 1.5978
thorax -5.795399999999999 -1.0078399999999992 4.227910000000005
lowerneck -15.3847 -2.44898 -2.528739999999999
upperneck 23.1429 -2.6164000000000014 -0.6714619999999996
head 9.92193 -1.51535 -0.151024
lclavicle 2.7780200000000026e-14 -3.1805500000000004e-15
lhumerus -22.31880000000001 -4.779759999999997 80.0489
lradius 34.19879999999999
lwrist 8.446919999999995
lhand -31.9861 22.9167
lfingers 7.12502
lthumb -5.23535 52.8321
rclavicle 2.7780200000000026e-14 -3.1805500000000004e-15
rhumerus -35.88590000000001 -25.987899999999996 -71.4306
rradius 22.590399999999995
rwrist 7.73325
rhand -19.6286 1.0
rfingers 7.12502
rthumb 6.698370000000002 -9.319749999999999
